<svg xmlns="http://www.w3.org/2000/svg" width="1120" height="430" viewBox="0 0 1120 430" role="img" aria-label="Graph DB лҢҖмІҙ Multi-Collection RAG кө¬мЎ°">
  <rect width="1120" height="430" rx="18" fill="#f7f9fc"/>
  <defs>
    <marker id="arrow" markerWidth="10" markerHeight="10" refX="8" refY="3" orient="auto">
      <path d="M0,0 L0,6 L9,3 z" fill="#3158a8"/>
    </marker>
  </defs>
  <style>
    .title{font:700 24px 'Malgun Gothic',Arial,sans-serif;fill:#172033}
    .sub{font:400 15px 'Malgun Gothic',Arial,sans-serif;fill:#475467}
    .card{fill:#fff;stroke:#d8e0ee;stroke-width:2;rx:14}
    .accent{fill:#eef4ff;stroke:#3158a8;stroke-width:2;rx:14}
    .label{font:700 15px 'Malgun Gothic',Arial,sans-serif;fill:#172033}
    .small{font:400 12px 'Malgun Gothic',Arial,sans-serif;fill:#475467}
    .arrow{stroke:#3158a8;stroke-width:2.2;fill:none;marker-end:url(#arrow)}
  </style>

  <text class="title" x="40" y="44">Graph DB лҢҖмІҙ: Multi-Collection RAG</text>
  <text class="sub" x="40" y="73">кҙҖкі„ к·ёлһҳн”„ лҢҖмӢ  л¬ём„ң м„ұкІ©лі„ collectionкіј query routingмңјлЎң м •л°Җ кІҖмғүмқ„ мҲҳн–үн•ңлӢӨ.</text>

  <rect class="accent" x="55" y="150" width="150" height="62"/>
  <text class="label" x="95" y="176">мӮ¬мҡ©мһҗ м§Ҳл¬ё</text>
  <text class="small" x="102" y="197">Query мһ…л Ҙ</text>
  <path class="arrow" d="M205 181 H280"/>

  <rect class="accent" x="280" y="150" width="155" height="62"/>
  <text class="label" x="335" y="176">Query</text>
  <text class="small" x="329" y="197">Routing</text>
  <path class="arrow" d="M435 181 H510"/>

  <rect class="card" x="510" y="96" width="250" height="170"/>
  <text class="label" x="586" y="122">кІҖмғү лҢҖмғҒ</text>
  <text class="small" x="555" y="148">law_chunks В· faq_chunks</text>
  <text class="small" x="545" y="176">manual_chunks В· guide_chunks</text>
  <text class="small" x="548" y="204">lh_guide_chunks В· web_faq_chunks</text>
  <text class="small" x="565" y="232">м§Ҳл¬ё мң нҳ•м—җ л”°лқј мҡ°м„ мҲңмң„ мЎ°м •</text>

  <path class="arrow" d="M760 181 H835"/>

  <rect class="accent" x="835" y="136" width="210" height="90"/>
  <text class="label" x="888" y="164">кІҖмғү кІ°кіј нҶөн•©</text>
  <text class="small" x="888" y="188">кұ°лҰ¬ ліҙм •</text>
  <text class="small" x="960" y="188">м¶ңмІҳ лқјлІЁ</text>
  <text class="small" x="898" y="208">мӨ‘ліө к·јкұ° м •лҰ¬</text>

  <path class="arrow" d="M940 226 V292"/>

  <rect class="accent" x="835" y="292" width="210" height="62"/>
  <text class="label" x="905" y="318">RAG лӢөліҖ</text>
  <text class="small" x="895" y="339">м¶ңмІҳ нҸ¬н•Ё мқ‘лӢө</text>
</svg>
