<svg xmlns="http://www.w3.org/2000/svg" width="1120" height="420" viewBox="0 0 1120 420" role="img" aria-label="QLoRA 튜닝 전후 비교">
  <rect width="1120" height="420" rx="18" fill="#f7f9fc"/>
  <style>
    .title{font:700 24px 'Malgun Gothic',Arial,sans-serif;fill:#172033}
    .sub{font:400 15px 'Malgun Gothic',Arial,sans-serif;fill:#475467}
    .axis{stroke:#cbd5e8;stroke-width:1.5}
    .grid{stroke:#e7edf6;stroke-width:1}
    .label{font:700 13px 'Malgun Gothic',Arial,sans-serif;fill:#172033}
    .small{font:400 12px 'Malgun Gothic',Arial,sans-serif;fill:#475467}
    .value{font:400 11px 'Malgun Gothic',Arial,sans-serif;fill:#475467}
  </style>

  <text class="title" x="40" y="44">Qwen2.5-7B QLoRA 튜닝 전후 비교</text>
  <text class="sub" x="40" y="73">88개 데이터 기준 실험 1과 313개 데이터 기준 실험 4를 비교했다.</text>

  <rect x="758" y="40" width="16" height="16" rx="4" fill="#b7c8f2"/>
  <text class="small" x="784" y="53">88개 데이터</text>
  <rect x="875" y="40" width="16" height="16" rx="4" fill="#3158a8"/>
  <text class="small" x="901" y="53">313개 데이터</text>

  <line class="axis" x1="90" y1="300" x2="1040" y2="300"/>
  <line class="axis" x1="90" y1="120" x2="90" y2="300"/>
  <line class="grid" x1="90" y1="228" x2="1040" y2="228"/>
  <line class="grid" x1="90" y1="156" x2="1040" y2="156"/>
  <text class="small" x="54" y="304">0.0</text>
  <text class="small" x="54" y="232">0.2</text>
  <text class="small" x="54" y="160">0.4</text>

  <rect x="168" y="139" width="42" height="161" fill="#b7c8f2"/>
  <rect x="220" y="121" width="42" height="179" fill="#3158a8"/>
  <text class="value" x="166" y="133">0.447</text>
  <text class="value" x="219" y="115">0.497</text>
  <text class="label" x="162" y="333">ROUGE-1</text>

  <rect x="405" y="175" width="42" height="125" fill="#b7c8f2"/>
  <rect x="457" y="200" width="42" height="100" fill="#3158a8"/>
  <text class="value" x="403" y="169">0.348</text>
  <text class="value" x="455" y="194">0.277</text>
  <text class="label" x="401" y="333">ROUGE-2</text>

  <rect x="640" y="147" width="42" height="153" fill="#b7c8f2"/>
  <rect x="692" y="129" width="42" height="171" fill="#3158a8"/>
  <text class="value" x="638" y="141">0.424</text>
  <text class="value" x="690" y="123">0.476</text>
  <text class="label" x="635" y="333">ROUGE-L</text>

  <rect x="875" y="255" width="42" height="45" fill="#b7c8f2"/>
  <rect x="927" y="248" width="42" height="52" fill="#3158a8"/>
  <text class="value" x="873" y="249">0.126</text>
  <text class="value" x="925" y="242">0.143</text>
  <text class="label" x="887" y="333">BLEU</text>

  <rect x="760" y="360" width="310" height="38" rx="12" fill="#fff8e6" stroke="#f5d58a"/>
  <text class="small" x="790" y="384">ROUGE-2 하락으로 튜닝 효과는 제한적으로 해석</text>
</svg>
